<?xml version="1.0" encoding="UTF-8"?>
<!DOCTYPE svg PUBLIC "-//W3C//DTD SVG 1.1//EN" "http://www.w3.org/Graphics/SVG/1.1/DTD/svg11.dtd">
<svg xmlns="http://www.w3.org/2000/svg" version="1.1" width="643px" height="388px" style="shape-rendering:geometricPrecision; text-rendering:geometricPrecision; image-rendering:optimizeQuality; fill-rule:evenodd; clip-rule:evenodd" xmlns:xlink="http://www.w3.org/1999/xlink">
<g><path style="opacity:0.994" fill="#f4fafe" d="M 343.5,91.5 C 346.372,97.8184 348.372,104.485 349.5,111.5C 360.015,109.621 370.349,106.954 380.5,103.5C 380.833,103 381.167,102.5 381.5,102C 380.128,98.9739 379.462,95.8073 379.5,92.5C 380.434,93.5676 380.768,94.901 380.5,96.5C 386.184,96.2575 391.851,95.7575 397.5,95C 414.599,90.6799 431.932,87.8466 449.5,86.5C 461.214,86.3747 472.214,89.0414 482.5,94.5C 481.004,103.384 480.171,112.384 480,121.5C 479.428,124.707 477.595,126.374 474.5,126.5C 473.891,121.188 473.391,115.854 473,110.5C 467.982,106.075 464.316,107.075 462,113.5C 461.76,117.252 461.26,120.919 460.5,124.5C 419.5,124.5 378.5,124.5 337.5,124.5C 336.032,115.93 331.032,112.596 322.5,114.5C 322.599,111.763 322.265,109.096 321.5,106.5C 321.666,102.486 321.499,98.4862 321,94.5C 318.972,90.8663 315.806,89.1997 311.5,89.5C 308.183,90.0531 304.85,90.3865 301.5,90.5C 301.44,89.9569 301.107,89.6236 300.5,89.5C 299.203,91.9732 299.203,94.3066 300.5,96.5C 301.451,97.9187 301.784,99.5853 301.5,101.5C 303.078,104.395 304.078,107.562 304.5,111C 306.018,112.351 307.351,113.851 308.5,115.5C 304.479,117.013 301.145,119.513 298.5,123C 300.641,123.573 302.641,124.406 304.5,125.5C 304.38,126.586 303.713,127.253 302.5,127.5C 300.172,126.67 297.838,125.837 295.5,125C 255.774,124.018 216.107,124.351 176.5,126C 175.667,126.833 174.833,127.667 174,128.5C 173.5,156.165 173.333,183.831 173.5,211.5C 171.833,211.5 170.167,211.5 168.5,211.5C 168.491,204.37 168.324,197.037 168,189.5C 167.487,184.71 164.82,182.043 160,181.5C 157.849,181.643 156.182,182.643 155,184.5C 154.415,189.511 153.749,194.511 153,199.5C 151.846,201.957 150.512,201.957 149,199.5C 148.039,189.494 147.039,179.494 146,169.5C 143.31,164.774 140.144,160.44 136.5,156.5C 130.752,154.208 126.919,155.875 125,161.5C 124.333,166.167 124.333,170.833 125,175.5C 126.782,178.632 127.948,181.965 128.5,185.5C 123.869,182.026 120.036,177.693 117,172.5C 101.492,135.945 104.825,101.278 127,68.5C 152.971,37.297 185.805,26.797 225.5,37C 245.745,43.2273 265.079,51.5607 283.5,62C 297.5,70 311.5,78 325.5,86C 331.254,88.7147 337.254,90.548 343.5,91.5 Z"/></g>
<g><path style="opacity:1" fill="#7aeef8" d="M 371.5,79.5 C 370.652,81.0931 369.319,82.2597 367.5,83C 363.962,83.5348 360.628,84.3681 357.5,85.5C 354.167,86.1667 350.833,86.8333 347.5,87.5C 348.167,85.8333 348.833,84.1667 349.5,82.5C 351.104,78.2384 353.771,74.9051 357.5,72.5C 362.161,74.8226 366.827,77.1559 371.5,79.5 Z"/></g>
<g><path style="opacity:1" fill="#6b6782" d="M 301.5,90.5 C 300.539,92.2646 300.205,94.2646 300.5,96.5C 299.203,94.3066 299.203,91.9732 300.5,89.5C 301.107,89.6236 301.44,89.9569 301.5,90.5 Z"/></g>
<g><path style="opacity:1" fill="#332252" d="M 321.5,106.5 C 320.001,105.322 319.001,103.655 318.5,101.5C 317.749,102.376 317.249,103.376 317,104.5C 316.023,102.26 315.523,99.9267 315.5,97.5C 311.176,97.9272 306.842,98.2605 302.5,98.5C 302.737,99.791 302.404,100.791 301.5,101.5C 301.784,99.5853 301.451,97.9187 300.5,96.5C 300.205,94.2646 300.539,92.2646 301.5,90.5C 304.85,90.3865 308.183,90.0531 311.5,89.5C 315.806,89.1997 318.972,90.8663 321,94.5C 321.499,98.4862 321.666,102.486 321.5,106.5 Z"/></g>
<g><path style="opacity:1" fill="#adf3fb" d="M 371.5,79.5 C 373.679,79.84 375.512,80.84 377,82.5C 377.943,85.824 378.776,89.1574 379.5,92.5C 379.462,95.8073 380.128,98.9739 381.5,102C 381.167,102.5 380.833,103 380.5,103.5C 370.349,106.954 360.015,109.621 349.5,111.5C 348.372,104.485 346.372,97.8184 343.5,91.5C 344.289,87.7075 346.289,84.7075 349.5,82.5C 348.833,84.1667 348.167,85.8333 347.5,87.5C 347.261,89.4672 347.594,91.3005 348.5,93C 356.657,96.3516 364.157,95.185 371,89.5C 371.808,87.4213 371.641,85.4213 370.5,83.5C 366.256,84.7072 361.923,85.3739 357.5,85.5C 360.628,84.3681 363.962,83.5348 367.5,83C 369.319,82.2597 370.652,81.0931 371.5,79.5 Z"/></g>
<g><path style="opacity:0.949" fill="#f6fdfd" d="M 347.5,87.5 C 350.833,86.8333 354.167,86.1667 357.5,85.5C 361.923,85.3739 366.256,84.7072 370.5,83.5C 371.641,85.4213 371.808,87.4213 371,89.5C 364.157,95.185 356.657,96.3516 348.5,93C 347.594,91.3005 347.261,89.4672 347.5,87.5 Z"/></g>
<g><path style="opacity:1" fill="#bef1f7" d="M 426.5,91.5 C 433.803,91.6023 435.803,94.769 432.5,101C 430.19,101.497 427.857,101.663 425.5,101.5C 425.173,99.5122 424.84,97.5122 424.5,95.5C 424.803,93.8857 425.47,92.5523 426.5,91.5 Z"/></g>
<g><path style="opacity:1" fill="#f6c9b2" d="M 321.5,106.5 C 322.265,109.096 322.599,111.763 322.5,114.5C 321.688,115.993 320.355,116.66 318.5,116.5C 315.201,115.79 311.867,115.457 308.5,115.5C 307.351,113.851 306.018,112.351 304.5,111C 304.078,107.562 303.078,104.395 301.5,101.5C 302.404,100.791 302.737,99.791 302.5,98.5C 306.842,98.2605 311.176,97.9272 315.5,97.5C 315.523,99.9267 316.023,102.26 317,104.5C 317.249,103.376 317.749,102.376 318.5,101.5C 319.001,103.655 320.001,105.322 321.5,106.5 Z"/></g>
<g><path style="opacity:1" fill="#b0f2fc" d="M 273.5,95.5 C 273.666,101.176 273.499,106.843 273,112.5C 272.626,113.416 272.126,114.25 271.5,115C 242.835,115.5 214.169,115.667 185.5,115.5C 185.5,108.833 185.5,102.167 185.5,95.5C 214.833,95.5 244.167,95.5 273.5,95.5 Z"/></g>
<g><path style="opacity:1" fill="#d7f7fb" d="M 251.5,101.5 C 232.007,102.497 212.34,102.83 192.5,102.5C 192.261,104.467 192.594,106.301 193.5,108C 213.004,108.168 232.338,108.668 251.5,109.5C 231.5,109.5 211.5,109.5 191.5,109.5C 191.5,106.833 191.5,104.167 191.5,101.5C 211.5,101.5 231.5,101.5 251.5,101.5 Z"/></g>
<g><path style="opacity:1" fill="#f9fdfc" d="M 251.5,109.5 C 232.338,108.668 213.004,108.168 193.5,108C 192.594,106.301 192.261,104.467 192.5,102.5C 212.34,102.83 232.007,102.497 251.5,101.5C 256.212,96.189 261.045,96.189 266,101.5C 266.083,112.86 261.25,115.526 251.5,109.5 Z"/></g>
<g><path style="opacity:1" fill="#d7f1f9" d="M 273.5,95.5 C 274.117,95.6107 274.617,95.944 275,96.5C 275.795,103.218 275.628,109.884 274.5,116.5C 245.172,117.667 215.839,117.833 186.5,117C 185.944,116.617 185.611,116.117 185.5,115.5C 214.169,115.667 242.835,115.5 271.5,115C 272.126,114.25 272.626,113.416 273,112.5C 273.499,106.843 273.666,101.176 273.5,95.5 Z"/></g>
<g><path style="opacity:1" fill="#36bfbc" d="M 337.5,124.5 C 335.522,127.404 334.855,130.404 335.5,133.5C 335.5,133.833 335.5,134.167 335.5,134.5C 332.888,139.946 329.888,145.28 326.5,150.5C 321.136,155.865 315.469,160.865 309.5,165.5C 309.672,164.508 309.338,163.842 308.5,163.5C 307.588,162.262 307.421,160.928 308,159.5C 314.208,151.737 319.375,143.404 323.5,134.5C 323.5,134.167 323.5,133.833 323.5,133.5C 325.965,130.337 325.965,127.171 323.5,124C 316.997,123.872 310.663,124.372 304.5,125.5C 302.641,124.406 300.641,123.573 298.5,123C 301.145,119.513 304.479,117.013 308.5,115.5C 311.867,115.457 315.201,115.79 318.5,116.5C 320.355,116.66 321.688,115.993 322.5,114.5C 331.032,112.596 336.032,115.93 337.5,124.5 Z"/></g>
<g><path style="opacity:1" fill="#c8f3fd" d="M 511.5,122.5 C 504.67,128.143 497.837,133.81 491,139.5C 489.991,141.025 489.491,142.692 489.5,144.5C 491.833,144.5 494.167,144.5 496.5,144.5C 496.663,146.857 496.497,149.19 496,151.5C 491.562,155.939 486.562,159.606 481,162.5C 479.762,165.926 480.929,167.592 484.5,167.5C 484.945,170.365 484.278,172.865 482.5,175C 478.556,177.639 474.222,179.139 469.5,179.5C 469.333,195.17 469.5,210.837 470,226.5C 471.706,227.308 472.539,228.641 472.5,230.5C 471.292,231.234 469.959,231.567 468.5,231.5C 468.667,197.165 468.5,162.832 468,128.5C 465.815,126.46 463.315,125.126 460.5,124.5C 461.26,120.919 461.76,117.252 462,113.5C 464.316,107.075 467.982,106.075 473,110.5C 473.391,115.854 473.891,121.188 474.5,126.5C 477.595,126.374 479.428,124.707 480,121.5C 480.171,112.384 481.004,103.384 482.5,94.5C 484.751,85.8813 490.084,82.7146 498.5,85C 501.107,87.9848 502.441,91.4848 502.5,95.5C 501.802,102.476 499.802,108.976 496.5,115C 497.99,116.634 499.324,116.301 500.5,114C 511.877,107.982 515.544,110.816 511.5,122.5 Z"/></g>
<g><path style="opacity:1" fill="#44a5d1" d="M 460.5,134.5 C 459.081,133.549 457.415,133.216 455.5,133.5C 454.157,131.695 453.324,129.695 453,127.5C 451.731,128.905 451.231,130.571 451.5,132.5C 415.498,132.667 379.498,132.5 343.5,132C 378.838,131.833 414.171,131.333 449.5,130.5C 411.833,129.833 374.167,129.167 336.5,128.5C 336.709,127.914 337.043,127.414 337.5,127C 379.167,126.333 420.833,126.333 462.5,127C 462.043,127.414 461.709,127.914 461.5,128.5C 463.469,130.421 464.969,130.421 466,128.5C 466.667,133.833 466.667,139.167 466,144.5C 464.455,143.179 463.289,143.512 462.5,145.5C 463.098,146.795 463.598,148.128 464,149.5C 464.29,147.956 464.956,146.623 466,145.5C 466.667,165.833 466.667,186.167 466,206.5C 465.667,205.833 465.333,205.167 465,204.5C 464,205.833 463,205.833 462,204.5C 461.463,181.835 461.63,159.335 462.5,137C 462.316,135.624 461.649,134.791 460.5,134.5 Z"/></g>
<g><path style="opacity:0.992" fill="#f4fafd" d="M 511.5,122.5 C 524.052,147.637 525.218,173.304 515,199.5C 509.528,211.78 503.028,223.447 495.5,234.5C 496.127,235.417 496.461,236.417 496.5,237.5C 491.637,232.888 485.97,230.888 479.5,231.5C 480.522,229.456 481.522,227.456 482.5,225.5C 483.873,225.657 485.207,225.49 486.5,225C 491.06,219.436 491.56,213.603 488,207.5C 482.869,206.133 477.702,204.8 472.5,203.5C 471.555,206.788 470.888,210.121 470.5,213.5C 470.335,217.182 470.501,220.848 471,224.5C 473.016,225.955 473.849,227.955 473.5,230.5C 473.167,230.5 472.833,230.5 472.5,230.5C 472.539,228.641 471.706,227.308 470,226.5C 469.5,210.837 469.333,195.17 469.5,179.5C 474.222,179.139 478.556,177.639 482.5,175C 484.278,172.865 484.945,170.365 484.5,167.5C 480.929,167.592 479.762,165.926 481,162.5C 486.562,159.606 491.562,155.939 496,151.5C 496.497,149.19 496.663,146.857 496.5,144.5C 494.167,144.5 491.833,144.5 489.5,144.5C 489.491,142.692 489.991,141.025 491,139.5C 497.837,133.81 504.67,128.143 511.5,122.5 Z"/></g>
<g><path style="opacity:1" fill="#54a5ca" d="M 337.5,124.5 C 378.5,124.5 419.5,124.5 460.5,124.5C 463.315,125.126 465.815,126.46 468,128.5C 468.5,162.832 468.667,197.165 468.5,231.5C 458.127,236.586 453.794,244.919 455.5,256.5C 454.065,255.087 453.065,253.42 452.5,251.5C 453.64,245.543 455.974,240.209 459.5,235.5C 460.498,202.004 460.832,168.337 460.5,134.5C 461.649,134.791 462.316,135.624 462.5,137C 461.63,159.335 461.463,181.835 462,204.5C 463,205.833 464,205.833 465,204.5C 465.333,205.167 465.667,205.833 466,206.5C 466.667,186.167 466.667,165.833 466,145.5C 464.956,146.623 464.29,147.956 464,149.5C 463.598,148.128 463.098,146.795 462.5,145.5C 463.289,143.512 464.455,143.179 466,144.5C 466.667,139.167 466.667,133.833 466,128.5C 464.969,130.421 463.469,130.421 461.5,128.5C 461.709,127.914 462.043,127.414 462.5,127C 420.833,126.333 379.167,126.333 337.5,127C 337.043,127.414 336.709,127.914 336.5,128.5C 374.167,129.167 411.833,129.833 449.5,130.5C 414.171,131.333 378.838,131.833 343.5,132C 379.498,132.5 415.498,132.667 451.5,132.5C 451.231,130.571 451.731,128.905 453,127.5C 453.324,129.695 454.157,131.695 455.5,133.5C 415.5,133.5 375.5,133.5 335.5,133.5C 334.855,130.404 335.522,127.404 337.5,124.5 Z"/></g>
<g><path style="opacity:1" fill="#a2cfe6" d="M 323.5,133.5 C 323.5,133.833 323.5,134.167 323.5,134.5C 276.5,134.5 229.5,134.5 182.5,134.5C 182.5,169.5 182.5,204.5 182.5,239.5C 181.833,236.167 181.167,232.833 180.5,229.5C 180.957,226.976 180.957,224.309 180.5,221.5C 181.434,220.432 181.768,219.099 181.5,217.5C 181.5,189.5 181.5,161.5 181.5,133.5C 228.833,133.5 276.167,133.5 323.5,133.5 Z"/></g>
<g><path style="opacity:1" fill="#98d0e8" d="M 335.5,134.5 C 335.5,134.167 335.5,133.833 335.5,133.5C 375.5,133.5 415.5,133.5 455.5,133.5C 457.415,133.216 459.081,133.549 460.5,134.5C 460.832,168.337 460.498,202.004 459.5,235.5C 459.5,201.833 459.5,168.167 459.5,134.5C 454.5,134.5 449.5,134.5 444.5,134.5C 424.167,134.5 403.833,134.5 383.5,134.5C 367.5,134.5 351.5,134.5 335.5,134.5 Z"/></g>
<g><path style="opacity:1" fill="#e9f6fd" d="M 323.5,134.5 C 319.375,143.404 314.208,151.737 308,159.5C 307.421,160.928 307.588,162.262 308.5,163.5C 305.843,163.162 303.51,163.829 301.5,165.5C 301.431,167.278 301.097,169.111 300.5,171C 303.186,170.636 305.853,169.802 308.5,168.5C 309.127,167.583 309.461,166.583 309.5,165.5C 315.469,160.865 321.136,155.865 326.5,150.5C 329.888,145.28 332.888,139.946 335.5,134.5C 351.5,134.5 367.5,134.5 383.5,134.5C 382.884,139.061 384.051,143.061 387,146.5C 389.297,146.461 391.63,146.128 394,145.5C 394.5,146 395,146.5 395.5,147C 400.5,147.167 405.5,147.333 410.5,147.5C 420.997,146.836 431.33,146.669 441.5,147C 443.757,145.262 445.091,142.929 445.5,140C 445.241,138.739 444.574,137.739 443.5,137C 444.252,136.329 444.586,135.496 444.5,134.5C 449.5,134.5 454.5,134.5 459.5,134.5C 459.5,168.167 459.5,201.833 459.5,235.5C 455.974,240.209 453.64,245.543 452.5,251.5C 447.812,245.307 443.479,238.807 439.5,232C 443.449,227.275 447.282,222.442 451,217.5C 459.783,195.558 455.283,177.058 437.5,162C 431.356,158.094 424.689,155.594 417.5,154.5C 415.19,153.836 412.69,153.503 410,153.5C 406.195,153.304 402.695,153.97 399.5,155.5C 391.857,156.487 385.524,159.82 380.5,165.5C 378.629,165.859 377.129,166.859 376,168.5C 369.414,176.673 365.914,186.006 365.5,196.5C 319.832,196.333 274.165,196.5 228.5,197C 220.827,202.771 220.494,209.105 227.5,216C 274.668,216.832 321.668,216.665 368.5,215.5C 368.833,215.5 369.167,215.5 369.5,215.5C 371.804,218.658 373.97,221.991 376,225.5C 378.106,228.118 380.606,230.118 383.5,231.5C 383.953,232.458 384.619,233.292 385.5,234C 388.064,235.396 390.731,236.563 393.5,237.5C 393.833,237.5 394.167,237.5 394.5,237.5C 397.381,239.68 400.714,240.68 404.5,240.5C 411.379,241.805 418.379,241.639 425.5,240C 426.942,239.623 427.942,238.79 428.5,237.5C 429.5,237.5 430.5,237.5 431.5,237.5C 431.34,239.199 431.506,240.866 432,242.5C 440.575,252.663 448.409,263.33 455.5,274.5C 454.711,274.783 454.044,275.283 453.5,276C 363.501,276.5 273.501,276.667 183.5,276.5C 183.329,273.512 184.662,271.512 187.5,270.5C 186.311,269.571 184.978,269.238 183.5,269.5C 183.5,268.167 183.5,266.833 183.5,265.5C 185.655,265.628 187.655,265.128 189.5,264C 190.269,261.416 191.602,259.25 193.5,257.5C 193.523,259.6 192.856,261.433 191.5,263C 192.102,264.563 192.935,264.396 194,262.5C 196.095,256.542 198.761,250.876 202,245.5C 202.722,242.739 202.555,240.073 201.5,237.5C 204.87,233.762 206.87,229.429 207.5,224.5C 208.125,218.782 205.792,216.782 200.5,218.5C 195.163,224.863 194.163,231.863 197.5,239.5C 196.542,239.953 195.708,240.619 195,241.5C 193.339,245.965 191.506,250.299 189.5,254.5C 188.25,249.332 185.916,244.666 182.5,240.5C 182.5,240.167 182.5,239.833 182.5,239.5C 182.5,204.5 182.5,169.5 182.5,134.5C 229.5,134.5 276.5,134.5 323.5,134.5 Z"/></g>
<g><path style="opacity:1" fill="#d5f7fe" d="M 383.5,134.5 C 403.833,134.5 424.167,134.5 444.5,134.5C 444.586,135.496 444.252,136.329 443.5,137C 444.574,137.739 445.241,138.739 445.5,140C 445.091,142.929 443.757,145.262 441.5,147C 431.33,146.669 420.997,146.836 410.5,147.5C 405.5,147.333 400.5,147.167 395.5,147C 395,146.5 394.5,146 394,145.5C 391.63,146.128 389.297,146.461 387,146.5C 384.051,143.061 382.884,139.061 383.5,134.5 Z"/></g>
<g><path style="opacity:1" fill="#4ca5ce" d="M 323.5,133.5 C 276.167,133.5 228.833,133.5 181.5,133.5C 181.5,161.5 181.5,189.5 181.5,217.5C 178.419,213.04 174.086,211.373 168.5,212.5C 168.5,212.167 168.5,211.833 168.5,211.5C 170.167,211.5 171.833,211.5 173.5,211.5C 173.333,183.831 173.5,156.165 174,128.5C 174.833,127.667 175.667,126.833 176.5,126C 216.107,124.351 255.774,124.018 295.5,125C 297.838,125.837 300.172,126.67 302.5,127.5C 303.713,127.253 304.38,126.586 304.5,125.5C 310.663,124.372 316.997,123.872 323.5,124C 325.965,127.171 325.965,130.337 323.5,133.5 Z"/></g>
<g><path style="opacity:1" fill="#d5f6fe" d="M 239.5,146.5 C 244.538,145.448 248.538,146.948 251.5,151C 252.448,151.483 253.448,151.649 254.5,151.5C 254.838,153.854 255.338,156.187 256,158.5C 262.656,157.821 266.323,160.821 267,167.5C 271.506,170.331 272.673,174.331 270.5,179.5C 269.692,179.808 269.025,180.308 268.5,181C 250.833,181.667 233.167,181.667 215.5,181C 213.628,178.364 211.962,175.697 210.5,173C 211.779,168.707 214.279,165.207 218,162.5C 218.311,160.444 218.811,158.444 219.5,156.5C 222.562,155.13 225.729,154.13 229,153.5C 229.333,153.833 229.667,154.167 230,154.5C 232.777,151.22 235.944,148.553 239.5,146.5 Z"/></g>
<g><path style="opacity:1" fill="#d38490" d="M 417.5,154.5 C 411.464,154.36 405.464,154.693 399.5,155.5C 402.695,153.97 406.195,153.304 410,153.5C 412.69,153.503 415.19,153.836 417.5,154.5 Z"/></g>
<g><path style="opacity:1" fill="#92cbd8" d="M 153.5,154.5 C 154.833,154.5 156.167,154.5 157.5,154.5C 157.5,155.833 157.5,157.167 157.5,158.5C 156.167,158.5 154.833,158.5 153.5,158.5C 153.5,157.167 153.5,155.833 153.5,154.5 Z"/></g>
<g><path style="opacity:1" fill="#b58399" d="M 399.5,155.5 C 393.976,157.851 388.643,160.685 383.5,164C 380.969,167.358 378.302,170.524 375.5,173.5C 376.349,170.319 378.015,167.652 380.5,165.5C 385.524,159.82 391.857,156.487 399.5,155.5 Z"/></g>
<g><path style="opacity:1" fill="#e5d1c8" d="M 308.5,163.5 C 309.338,163.842 309.672,164.508 309.5,165.5C 309.461,166.583 309.127,167.583 308.5,168.5C 305.853,169.802 303.186,170.636 300.5,171C 301.097,169.111 301.431,167.278 301.5,165.5C 303.51,163.829 305.843,163.162 308.5,163.5 Z"/></g>
<g><path style="opacity:1" fill="#a4b0cd" d="M 380.5,165.5 C 378.015,167.652 376.349,170.319 375.5,173.5C 370.629,180.247 367.963,187.914 367.5,196.5C 366.549,197.919 366.216,199.585 366.5,201.5C 365.549,200.081 365.216,198.415 365.5,196.5C 365.914,186.006 369.414,176.673 376,168.5C 377.129,166.859 378.629,165.859 380.5,165.5 Z"/></g>
<g><path style="opacity:1" fill="#de505e" d="M 417.5,154.5 C 424.689,155.594 431.356,158.094 437.5,162C 455.283,177.058 459.783,195.558 451,217.5C 447.282,222.442 443.449,227.275 439.5,232C 443.479,238.807 447.812,245.307 452.5,251.5C 453.065,253.42 454.065,255.087 455.5,256.5C 456.167,257.5 456.833,258.5 457.5,259.5C 461.095,264.365 464.428,269.365 467.5,274.5C 467.5,274.833 467.5,275.167 467.5,275.5C 467.92,277.094 468.586,278.594 469.5,280C 468.571,281.077 467.904,282.244 467.5,283.5C 464.888,281.948 463.555,279.614 463.5,276.5C 462.5,276.5 461.5,276.5 460.5,276.5C 458.852,273.203 457.185,269.87 455.5,266.5C 454.083,264.739 452.417,263.406 450.5,262.5C 446.592,255.917 442.259,249.583 437.5,243.5C 437.808,241.076 437.474,238.743 436.5,236.5C 435.478,236.855 434.811,237.522 434.5,238.5C 432.683,236.49 430.683,236.157 428.5,237.5C 421.692,239.69 414.692,240.69 407.5,240.5C 403.245,239.598 398.911,238.598 394.5,237.5C 394.167,237.5 393.833,237.5 393.5,237.5C 392.218,235.82 390.551,234.487 388.5,233.5C 388.5,232.167 388.5,230.833 388.5,229.5C 384.51,230.337 381.843,228.837 380.5,225C 380.735,224.127 381.069,223.293 381.5,222.5C 380.288,219.907 378.954,217.407 377.5,215C 377.667,214.167 377.833,213.333 378,212.5C 379.524,214.898 381.024,217.231 382.5,219.5C 389.962,227.956 399.296,232.956 410.5,234.5C 414.414,234.284 418.247,233.617 422,232.5C 424.779,230.237 427.946,228.737 431.5,228C 433.384,226.951 434.718,225.451 435.5,223.5C 443.033,218.607 446.699,211.607 446.5,202.5C 448.309,190.349 444.642,180.349 435.5,172.5C 417.559,158.201 400.392,159.201 384,175.5C 380.732,180.035 378.565,185.035 377.5,190.5C 376.833,190.5 376.5,190.833 376.5,191.5C 374.546,196.392 373.546,201.726 373.5,207.5C 372.5,207.5 371.5,207.5 370.5,207.5C 370.17,200.468 370.503,193.468 371.5,186.5C 372.251,187.376 372.751,188.376 373,189.5C 373.419,187.32 373.252,185.154 372.5,183C 373.879,179.992 374.879,176.825 375.5,173.5C 378.302,170.524 380.969,167.358 383.5,164C 388.643,160.685 393.976,157.851 399.5,155.5C 405.464,154.693 411.464,154.36 417.5,154.5 Z"/></g>
<g><path style="opacity:1" fill="#b9b1cc" d="M 435.5,172.5 C 444.642,180.349 448.309,190.349 446.5,202.5C 444.197,210.102 440.53,217.102 435.5,223.5C 434.167,224.167 432.833,224.833 431.5,225.5C 447.059,208.908 448.393,191.241 435.5,172.5 Z"/></g>
<g><path style="opacity:1" fill="#e3d7e0" d="M 365.5,196.5 C 365.216,198.415 365.549,200.081 366.5,201.5C 366.5,203.5 366.5,205.5 366.5,207.5C 365.257,205.036 364.257,202.37 363.5,199.5C 360.044,197.765 356.378,197.765 352.5,199.5C 313.32,198.209 274.32,198.209 235.5,199.5C 232.995,198.503 230.328,198.503 227.5,199.5C 227.5,200.5 227.5,201.5 227.5,202.5C 226.5,202.5 225.5,202.5 224.5,202.5C 224.338,204.527 224.505,206.527 225,208.5C 226.527,210.221 227.527,212.221 228,214.5C 228.561,215.022 229.228,215.355 230,215.5C 276.306,215.495 322.473,215.495 368.5,215.5C 321.668,216.665 274.668,216.832 227.5,216C 220.494,209.105 220.827,202.771 228.5,197C 274.165,196.5 319.832,196.333 365.5,196.5 Z"/></g>
<g><path style="opacity:1" fill="#e9a6b0" d="M 393.5,196.5 C 401.352,196.175 409.018,196.508 416.5,197.5C 409.167,197.5 401.833,197.5 394.5,197.5C 394.5,203.5 394.5,209.5 394.5,215.5C 401.5,215.5 408.5,215.5 415.5,215.5C 408.167,216.833 400.833,216.833 393.5,215.5C 393.5,209.167 393.5,202.833 393.5,196.5 Z"/></g>
<g><path style="opacity:1" fill="#e9d0d8" d="M 366.5,207.5 C 368.02,209.89 369.02,212.557 369.5,215.5C 369.167,215.5 368.833,215.5 368.5,215.5C 322.473,215.495 276.306,215.495 230,215.5C 229.228,215.355 228.561,215.022 228,214.5C 227.527,212.221 226.527,210.221 225,208.5C 224.505,206.527 224.338,204.527 224.5,202.5C 225.5,202.5 226.5,202.5 227.5,202.5C 227.5,201.5 227.5,200.5 227.5,199.5C 230.328,198.503 232.995,198.503 235.5,199.5C 274.32,198.209 313.32,198.209 352.5,199.5C 356.378,197.765 360.044,197.765 363.5,199.5C 364.257,202.37 365.257,205.036 366.5,207.5 Z"/></g>
<g><path style="opacity:1" fill="#eef7fc" d="M 435.5,172.5 C 448.393,191.241 447.059,208.908 431.5,225.5C 418.279,233.287 404.945,233.454 391.5,226C 388.629,223.297 385.962,220.464 383.5,217.5C 383.611,216.883 383.944,216.383 384.5,216C 387.482,215.502 390.482,215.335 393.5,215.5C 400.833,216.833 408.167,216.833 415.5,215.5C 420.373,214.284 423.04,211.117 423.5,206C 422.825,201.823 420.492,198.99 416.5,197.5C 409.018,196.508 401.352,196.175 393.5,196.5C 388.167,196.5 382.833,196.5 377.5,196.5C 377.5,194.5 377.5,192.5 377.5,190.5C 378.565,185.035 380.732,180.035 384,175.5C 400.392,159.201 417.559,158.201 435.5,172.5 Z"/></g>
<g><path style="opacity:1" fill="#dc929f" d="M 235.5,199.5 C 235.827,204.214 235.493,208.88 234.5,213.5C 234.167,211.167 233.833,208.833 233.5,206.5C 233.529,203.731 234.195,201.397 235.5,199.5 Z"/></g>
<g><path style="opacity:1" fill="#c7f3fd" d="M 168.5,211.5 C 168.5,211.833 168.5,212.167 168.5,212.5C 166.574,213.242 164.741,214.242 163,215.5C 161.81,219.381 161.143,223.381 161,227.5C 159.719,230.447 157.719,232.781 155,234.5C 155.5,238.847 155.333,243.181 154.5,247.5C 155.465,250.128 157.132,252.128 159.5,253.5C 159.5,255.833 159.5,258.167 159.5,260.5C 153.854,260.337 148.854,258.503 144.5,255C 142.862,251.461 143.362,248.294 146,245.5C 146.667,244.167 146.667,242.833 146,241.5C 141.095,238.033 135.928,235.033 130.5,232.5C 125.958,224.222 128.292,220.389 137.5,221C 135.539,218.037 133.206,215.371 130.5,213C 121.307,207.974 114.307,200.807 109.5,191.5C 110.064,187.936 112.064,185.603 115.5,184.5C 120.201,185.932 124.367,188.266 128,191.5C 128.692,190.975 129.192,190.308 129.5,189.5C 128.754,188.264 128.421,186.93 128.5,185.5C 127.948,181.965 126.782,178.632 125,175.5C 124.333,170.833 124.333,166.167 125,161.5C 126.919,155.875 130.752,154.208 136.5,156.5C 140.144,160.44 143.31,164.774 146,169.5C 147.039,179.494 148.039,189.494 149,199.5C 150.512,201.957 151.846,201.957 153,199.5C 153.749,194.511 154.415,189.511 155,184.5C 156.182,182.643 157.849,181.643 160,181.5C 164.82,182.043 167.487,184.71 168,189.5C 168.324,197.037 168.491,204.37 168.5,211.5 Z"/></g>
<g><path style="opacity:1" fill="#d75260" d="M 375.5,173.5 C 374.879,176.825 373.879,179.992 372.5,183C 373.252,185.154 373.419,187.32 373,189.5C 372.751,188.376 372.251,187.376 371.5,186.5C 370.503,193.468 370.17,200.468 370.5,207.5C 371.5,207.5 372.5,207.5 373.5,207.5C 373.546,201.726 374.546,196.392 376.5,191.5C 376.405,196.887 376.905,202.22 378,207.5C 379.769,210.706 381.269,214.039 382.5,217.5C 382.5,218.167 382.5,218.833 382.5,219.5C 381.024,217.231 379.524,214.898 378,212.5C 377.833,213.333 377.667,214.167 377.5,215C 378.954,217.407 380.288,219.907 381.5,222.5C 381.069,223.293 380.735,224.127 380.5,225C 381.843,228.837 384.51,230.337 388.5,229.5C 388.5,230.833 388.5,232.167 388.5,233.5C 386.833,232.833 385.167,232.167 383.5,231.5C 374.117,221.744 368.784,210.077 367.5,196.5C 367.963,187.914 370.629,180.247 375.5,173.5 Z"/></g>
<g><path style="opacity:1" fill="#e77681" d="M 416.5,197.5 C 420.492,198.99 422.825,201.823 423.5,206C 423.04,211.117 420.373,214.284 415.5,215.5C 408.5,215.5 401.5,215.5 394.5,215.5C 394.5,209.5 394.5,203.5 394.5,197.5C 401.833,197.5 409.167,197.5 416.5,197.5 Z"/></g>
<g><path style="opacity:1" fill="#fccfce" d="M 408.5,209.5 C 405.898,210.969 403.731,210.302 402,207.5C 402.085,200.762 405.085,199.095 411,202.5C 411.056,205.78 411.889,208.78 413.5,211.5C 413.333,211.833 413.167,212.167 413,212.5C 411.871,210.859 410.371,209.859 408.5,209.5 Z"/></g>
<g><path style="opacity:1" fill="#e27b86" d="M 408.5,209.5 C 404.513,209.348 403.013,207.348 404,203.5C 406.853,200.833 408.687,201.5 409.5,205.5C 409.377,206.925 409.043,208.258 408.5,209.5 Z"/></g>
<g><path style="opacity:1" fill="#352352" d="M 482.5,225.5 C 483.733,224.024 484.733,222.357 485.5,220.5C 484.809,218.109 483.809,218.109 482.5,220.5C 482.167,219.833 481.833,219.167 481.5,218.5C 483.85,213.011 482.017,210.345 476,210.5C 473.624,210.685 471.791,211.685 470.5,213.5C 470.888,210.121 471.555,206.788 472.5,203.5C 477.702,204.8 482.869,206.133 488,207.5C 491.56,213.603 491.06,219.436 486.5,225C 485.207,225.49 483.873,225.657 482.5,225.5 Z"/></g>
<g><path style="opacity:1" fill="#efd9df" d="M 377.5,190.5 C 377.5,192.5 377.5,194.5 377.5,196.5C 382.833,196.5 388.167,196.5 393.5,196.5C 393.5,202.833 393.5,209.167 393.5,215.5C 390.482,215.335 387.482,215.502 384.5,216C 383.944,216.383 383.611,216.883 383.5,217.5C 383.167,217.5 382.833,217.5 382.5,217.5C 381.269,214.039 379.769,210.706 378,207.5C 376.905,202.22 376.405,196.887 376.5,191.5C 376.5,190.833 376.833,190.5 377.5,190.5 Z"/></g>
<g><path style="opacity:1" fill="#a295b2" d="M 367.5,196.5 C 368.784,210.077 374.117,221.744 383.5,231.5C 380.606,230.118 378.106,228.118 376,225.5C 373.97,221.991 371.804,218.658 369.5,215.5C 369.02,212.557 368.02,209.89 366.5,207.5C 366.5,205.5 366.5,203.5 366.5,201.5C 366.216,199.585 366.549,197.919 367.5,196.5 Z"/></g>
<g><path style="opacity:1" fill="#f7c9b3" d="M 482.5,225.5 C 481.522,227.456 480.522,229.456 479.5,231.5C 477.898,233.074 475.898,233.741 473.5,233.5C 473.5,232.5 473.5,231.5 473.5,230.5C 473.849,227.955 473.016,225.955 471,224.5C 470.501,220.848 470.335,217.182 470.5,213.5C 471.791,211.685 473.624,210.685 476,210.5C 482.017,210.345 483.85,213.011 481.5,218.5C 481.833,219.167 482.167,219.833 482.5,220.5C 483.809,218.109 484.809,218.109 485.5,220.5C 484.733,222.357 483.733,224.024 482.5,225.5 Z"/></g>
<g><path style="opacity:1" fill="#af4960" d="M 446.5,202.5 C 446.699,211.607 443.033,218.607 435.5,223.5C 440.53,217.102 444.197,210.102 446.5,202.5 Z"/></g>
<g><path style="opacity:1" fill="#caecf6" d="M 93.5,214.5 C 99.0508,213.007 102.051,215.007 102.5,220.5C 102.61,222.374 101.944,223.874 100.5,225C 97.7695,225.728 95.1029,225.562 92.5,224.5C 91.0573,220.877 91.3906,217.544 93.5,214.5 Z"/></g>
<g><path style="opacity:1" fill="#e5cbc1" d="M 180.5,221.5 C 180.957,224.309 180.957,226.976 180.5,229.5C 179.751,230.531 179.085,231.698 178.5,233C 176.843,233.725 175.843,233.225 175.5,231.5C 176.53,228.896 176.53,226.229 175.5,223.5C 176.5,223.5 177.5,223.5 178.5,223.5C 178.343,222.127 178.51,220.793 179,219.5C 179.717,220.044 180.217,220.711 180.5,221.5 Z"/></g>
<g><path style="opacity:1" fill="#cf7888" d="M 201.5,237.5 C 200.508,237.328 199.842,237.662 199.5,238.5C 198.732,239.263 198.232,240.263 198,241.5C 197.536,240.906 197.369,240.239 197.5,239.5C 194.163,231.863 195.163,224.863 200.5,218.5C 205.792,216.782 208.125,218.782 207.5,224.5C 206.87,229.429 204.87,233.762 201.5,237.5 Z"/></g>
<g><path style="opacity:1" fill="#f6eef2" d="M 201.5,219.5 C 202.5,219.5 203.5,219.5 204.5,219.5C 204.818,225.543 203.151,230.876 199.5,235.5C 197.976,234.473 197.309,232.973 197.5,231C 197.944,226.833 199.278,222.999 201.5,219.5 Z"/></g>
<g><path style="opacity:0.992" fill="#f5fafe" d="M 130.5,232.5 C 135.928,235.033 141.095,238.033 146,241.5C 146.667,242.833 146.667,244.167 146,245.5C 143.362,248.294 142.862,251.461 144.5,255C 148.854,258.503 153.854,260.337 159.5,260.5C 159.5,265.5 159.5,270.5 159.5,275.5C 155.978,280.97 155.645,286.637 158.5,292.5C 158.665,295.518 158.498,298.518 158,301.5C 157.111,300.112 156.611,300.278 156.5,302C 157.693,305.014 158.359,308.181 158.5,311.5C 157.939,315.989 157.939,320.322 158.5,324.5C 155.105,325.056 152.938,323.723 152,320.5C 151.329,319.748 150.496,319.414 149.5,319.5C 148.167,319.5 146.833,319.5 145.5,319.5C 144.834,322.358 144.167,325.358 143.5,328.5C 135.824,324.839 133.491,327.173 136.5,335.5C 134.801,335.34 133.134,335.506 131.5,336C 129.102,337.018 126.769,338.185 124.5,339.5C 122.829,341.51 122.162,343.843 122.5,346.5C 122.167,346.5 121.833,346.5 121.5,346.5C 115.276,340.779 109.109,334.779 103,328.5C 90.999,308.665 90.3324,288.331 101,267.5C 110.709,255.633 120.543,243.966 130.5,232.5 Z"/></g>
<g><path style="opacity:1" fill="#2b2355" d="M 168.5,212.5 C 174.086,211.373 178.419,213.04 181.5,217.5C 181.768,219.099 181.434,220.432 180.5,221.5C 180.217,220.711 179.717,220.044 179,219.5C 178.51,220.793 178.343,222.127 178.5,223.5C 177.5,223.5 176.5,223.5 175.5,223.5C 176.53,226.229 176.53,228.896 175.5,231.5C 173.271,233.099 172.938,235.099 174.5,237.5C 175.018,238.577 175.352,239.744 175.5,241C 174.014,243.589 173.347,246.423 173.5,249.5C 170.618,249.608 168.285,250.774 166.5,253C 164.19,253.497 161.857,253.663 159.5,253.5C 157.132,252.128 155.465,250.128 154.5,247.5C 155.333,243.181 155.5,238.847 155,234.5C 157.719,232.781 159.719,230.447 161,227.5C 161.143,223.381 161.81,219.381 163,215.5C 164.741,214.242 166.574,213.242 168.5,212.5 Z"/></g>
<g><path style="opacity:1" fill="#b38ea2" d="M 383.5,231.5 C 385.167,232.167 386.833,232.833 388.5,233.5C 390.551,234.487 392.218,235.82 393.5,237.5C 390.731,236.563 388.064,235.396 385.5,234C 384.619,233.292 383.953,232.458 383.5,231.5 Z"/></g>
<g><path style="opacity:1" fill="#bd495b" d="M 382.5,217.5 C 382.833,217.5 383.167,217.5 383.5,217.5C 385.962,220.464 388.629,223.297 391.5,226C 404.945,233.454 418.279,233.287 431.5,225.5C 432.833,224.833 434.167,224.167 435.5,223.5C 434.718,225.451 433.384,226.951 431.5,228C 427.946,228.737 424.779,230.237 422,232.5C 418.247,233.617 414.414,234.284 410.5,234.5C 399.296,232.956 389.962,227.956 382.5,219.5C 382.5,218.833 382.5,218.167 382.5,217.5 Z"/></g>
<g><path style="opacity:1" fill="#5195bd" d="M 180.5,229.5 C 181.167,232.833 181.833,236.167 182.5,239.5C 182.5,239.833 182.5,240.167 182.5,240.5C 182.5,240.833 182.5,241.167 182.5,241.5C 180.348,239.222 177.681,237.888 174.5,237.5C 172.938,235.099 173.271,233.099 175.5,231.5C 175.843,233.225 176.843,233.725 178.5,233C 179.085,231.698 179.751,230.531 180.5,229.5 Z"/></g>
<g><path style="opacity:1" fill="#2d1d57" d="M 167.5,214.5 C 171.308,214.163 174.974,214.663 178.5,216C 177.101,216.595 175.768,216.428 174.5,215.5C 173.46,218.133 172.627,220.466 172,222.5C 168.192,219.625 166.526,220.625 167,225.5C 167.718,224.549 168.551,224.383 169.5,225C 171.607,226.264 172.607,228.097 172.5,230.5C 170.488,229.986 168.488,229.82 166.5,230C 165.663,231.011 165.33,232.178 165.5,233.5C 168.998,233.565 169.498,234.899 167,237.5C 164.91,238.791 163.576,238.124 163,235.5C 161.77,236.275 161.437,237.275 162,238.5C 164.381,239.435 166.881,239.768 169.5,239.5C 169.281,238.325 169.614,237.325 170.5,236.5C 171.747,238.044 173.08,239.544 174.5,241C 171.059,242.318 169.725,244.818 170.5,248.5C 168.179,248.771 166.179,248.104 164.5,246.5C 163.205,247.098 161.872,247.598 160.5,248C 161.5,248.833 162.5,249.667 163.5,250.5C 161.159,251.712 158.993,251.378 157,249.5C 157.063,244.858 157.396,240.191 158,235.5C 160.105,232.936 161.938,230.269 163.5,227.5C 162.905,224.86 162.572,222.193 162.5,219.5C 163.5,219.5 164.5,219.5 165.5,219.5C 165.831,217.678 166.498,216.011 167.5,214.5 Z"/></g>
<g><path style="opacity:1" fill="#c3828d" d="M 394.5,237.5 C 398.911,238.598 403.245,239.598 407.5,240.5C 406.5,240.5 405.5,240.5 404.5,240.5C 400.714,240.68 397.381,239.68 394.5,237.5 Z"/></g>
<g><path style="opacity:1" fill="#32bebb" d="M 472.5,230.5 C 472.833,230.5 473.167,230.5 473.5,230.5C 473.5,231.5 473.5,232.5 473.5,233.5C 475.898,233.741 477.898,233.074 479.5,231.5C 485.97,230.888 491.637,232.888 496.5,237.5C 498.02,239.89 499.02,242.557 499.5,245.5C 499.666,253.507 499.5,261.507 499,269.5C 498.667,269.167 498.333,268.833 498,268.5C 495.794,273.144 493.294,273.477 490.5,269.5C 487.514,271.812 487.848,273.479 491.5,274.5C 490.754,275.736 490.421,277.07 490.5,278.5C 485.833,279.5 481.167,280.5 476.5,281.5C 476.5,280.167 476.5,278.833 476.5,277.5C 474.94,277.519 473.44,277.852 472,278.5C 470.357,277.685 468.857,276.685 467.5,275.5C 467.5,275.167 467.5,274.833 467.5,274.5C 466.582,268.225 466.249,261.892 466.5,255.5C 464.41,255.45 463.077,256.45 462.5,258.5C 460.955,259.452 459.288,259.785 457.5,259.5C 456.833,258.5 456.167,257.5 455.5,256.5C 453.794,244.919 458.127,236.586 468.5,231.5C 469.959,231.567 471.292,231.234 472.5,230.5 Z M 476.5,258.5 C 476.5,261.167 476.5,263.833 476.5,266.5C 475.467,265.088 474.801,263.422 474.5,261.5C 474.453,259.962 475.12,258.962 476.5,258.5 Z"/></g>
<g><path style="opacity:1" fill="#f7cbd5" d="M 428.5,237.5 C 427.942,238.79 426.942,239.623 425.5,240C 418.379,241.639 411.379,241.805 404.5,240.5C 405.5,240.5 406.5,240.5 407.5,240.5C 414.692,240.69 421.692,239.69 428.5,237.5 Z"/></g>
<g><path style="opacity:1" fill="#fbc4b1" d="M 437.5,243.5 C 435.273,242.599 434.273,240.933 434.5,238.5C 434.811,237.522 435.478,236.855 436.5,236.5C 437.474,238.743 437.808,241.076 437.5,243.5 Z"/></g>
<g><path style="opacity:1" fill="#dbfcfb" d="M 476.5,258.5 C 475.12,258.962 474.453,259.962 474.5,261.5C 474.801,263.422 475.467,265.088 476.5,266.5C 476.435,268.696 475.768,270.696 474.5,272.5C 473.808,271.975 473.308,271.308 473,270.5C 472.5,258.838 472.333,247.171 472.5,235.5C 473.5,235.5 474.5,235.5 475.5,235.5C 476.07,243.154 476.404,250.821 476.5,258.5 Z"/></g>
<g><path style="opacity:1" fill="#a3c8e2" d="M 182.5,240.5 C 185.916,244.666 188.25,249.332 189.5,254.5C 188.081,255.451 186.415,255.784 184.5,255.5C 185.582,254.406 186.248,253.073 186.5,251.5C 185.157,248.15 183.823,244.817 182.5,241.5C 182.5,241.167 182.5,240.833 182.5,240.5 Z"/></g>
<g><path style="opacity:0.702" fill="#caf5f9" d="M 508.5,227.5 C 512.102,227.506 514.102,229.34 514.5,233C 518.584,232.838 522.084,234.005 525,236.5C 525.17,242.149 522.337,244.482 516.5,243.5C 516.336,249.488 513.836,250.821 509,247.5C 508.183,243.289 510.016,241.289 514.5,241.5C 514.66,239.801 514.494,238.134 514,236.5C 511.876,235.773 509.709,235.106 507.5,234.5C 506.167,231.862 506.5,229.529 508.5,227.5 Z"/></g>
<g><path style="opacity:1" fill="#93afc6" d="M 428.5,237.5 C 430.683,236.157 432.683,236.49 434.5,238.5C 434.273,240.933 435.273,242.599 437.5,243.5C 442.259,249.583 446.592,255.917 450.5,262.5C 454.057,267.175 457.057,272.175 459.5,277.5C 458.833,277.5 458.167,277.5 457.5,277.5C 457.068,276.29 456.401,275.29 455.5,274.5C 448.409,263.33 440.575,252.663 432,242.5C 431.506,240.866 431.34,239.199 431.5,237.5C 430.5,237.5 429.5,237.5 428.5,237.5 Z"/></g>
<g><path style="opacity:1" fill="#063d5e" d="M 174.5,237.5 C 177.681,237.888 180.348,239.222 182.5,241.5C 183.823,244.817 185.157,248.15 186.5,251.5C 186.248,253.073 185.582,254.406 184.5,255.5C 181.914,256.638 180.247,258.638 179.5,261.5C 178.883,261.611 178.383,261.944 178,262.5C 177.393,266.537 177.56,270.537 178.5,274.5C 172.225,275.418 165.892,275.751 159.5,275.5C 159.5,270.5 159.5,265.5 159.5,260.5C 159.5,258.167 159.5,255.833 159.5,253.5C 161.857,253.663 164.19,253.497 166.5,253C 168.285,250.774 170.618,249.608 173.5,249.5C 173.347,246.423 174.014,243.589 175.5,241C 175.352,239.744 175.018,238.577 174.5,237.5 Z"/></g>
<g><path style="opacity:1" fill="#f5c4ac" d="M 199.5,238.5 C 198.888,245.282 196.888,251.615 193.5,257.5C 191.602,259.25 190.269,261.416 189.5,264C 187.655,265.128 185.655,265.628 183.5,265.5C 183.672,264.508 183.338,263.842 182.5,263.5C 182.027,262.094 181.027,261.427 179.5,261.5C 180.247,258.638 181.914,256.638 184.5,255.5C 186.415,255.784 188.081,255.451 189.5,254.5C 191.506,250.299 193.339,245.965 195,241.5C 195.708,240.619 196.542,239.953 197.5,239.5C 197.369,240.239 197.536,240.906 198,241.5C 198.232,240.263 198.732,239.263 199.5,238.5 Z"/></g>
<g><path style="opacity:1" fill="#b4c6d5" d="M 201.5,237.5 C 202.555,240.073 202.722,242.739 202,245.5C 198.761,250.876 196.095,256.542 194,262.5C 192.935,264.396 192.102,264.563 191.5,263C 192.856,261.433 193.523,259.6 193.5,257.5C 196.888,251.615 198.888,245.282 199.5,238.5C 199.842,237.662 200.508,237.328 201.5,237.5 Z"/></g>
<g><path style="opacity:1" fill="#4290b7" d="M 467.5,274.5 C 464.428,269.365 461.095,264.365 457.5,259.5C 459.288,259.785 460.955,259.452 462.5,258.5C 463.077,256.45 464.41,255.45 466.5,255.5C 466.249,261.892 466.582,268.225 467.5,274.5 Z"/></g>
<g><path style="opacity:1" fill="#79cfcd" d="M 499.5,245.5 C 501.674,253.665 501.84,261.998 500,270.5C 497.766,272.7 495.266,274.533 492.5,276C 491.748,276.671 491.414,277.504 491.5,278.5C 491.167,278.5 490.833,278.5 490.5,278.5C 490.421,277.07 490.754,275.736 491.5,274.5C 487.848,273.479 487.514,271.812 490.5,269.5C 493.294,273.477 495.794,273.144 498,268.5C 498.333,268.833 498.667,269.167 499,269.5C 499.5,261.507 499.666,253.507 499.5,245.5 Z"/></g>
<g><path style="opacity:1" fill="#e0fefe" d="M 182.5,263.5 C 183.338,263.842 183.672,264.508 183.5,265.5C 183.5,266.833 183.5,268.167 183.5,269.5C 184.978,269.238 186.311,269.571 187.5,270.5C 184.662,271.512 183.329,273.512 183.5,276.5C 273.501,276.667 363.501,276.5 453.5,276C 454.044,275.283 454.711,274.783 455.5,274.5C 456.401,275.29 457.068,276.29 457.5,277.5C 365.833,277.5 274.167,277.5 182.5,277.5C 182.5,272.833 182.5,268.167 182.5,263.5 Z"/></g>
<g><path style="opacity:1" fill="#8a4d73" d="M 460.5,277.5 C 462.408,278.486 463.408,280.152 463.5,282.5C 461.75,281.341 460.75,279.674 460.5,277.5 Z"/></g>
<g><path style="opacity:0.161" fill="#c1d3de" d="M 491.5,278.5 C 492.906,278.973 493.573,279.973 493.5,281.5C 492.094,281.027 491.427,280.027 491.5,278.5 Z"/></g>
<g><path style="opacity:1" fill="#38c9c3" d="M 178.5,274.5 C 180.652,278.201 181.985,282.201 182.5,286.5C 183.372,294.099 184.039,301.766 184.5,309.5C 180.538,310.851 176.371,311.518 172,311.5C 169.04,311.557 166.207,311.057 163.5,310C 162.517,303.887 160.851,298.054 158.5,292.5C 155.645,286.637 155.978,280.97 159.5,275.5C 165.892,275.751 172.225,275.418 178.5,274.5 Z"/></g>
<g><path style="opacity:1" fill="#4ca8d2" d="M 179.5,261.5 C 181.027,261.427 182.027,262.094 182.5,263.5C 182.5,268.167 182.5,272.833 182.5,277.5C 274.167,277.5 365.833,277.5 457.5,277.5C 458.167,277.5 458.833,277.5 459.5,277.5C 459.846,280.794 460.679,283.794 462,286.5C 369.237,285.501 276.404,285.168 183.5,285.5C 182.997,280.5 182.664,280.833 182.5,286.5C 181.985,282.201 180.652,278.201 178.5,274.5C 177.56,270.537 177.393,266.537 178,262.5C 178.383,261.944 178.883,261.611 179.5,261.5 Z"/></g>
<g><path style="opacity:1" fill="#efbdad" d="M 467.5,275.5 C 468.857,276.685 470.357,277.685 472,278.5C 473.44,277.852 474.94,277.519 476.5,277.5C 476.5,278.833 476.5,280.167 476.5,281.5C 475.694,282.728 474.694,283.728 473.5,284.5C 471.833,285.167 470.167,285.833 468.5,286.5C 467.596,285.791 467.263,284.791 467.5,283.5C 467.904,282.244 468.571,281.077 469.5,280C 468.586,278.594 467.92,277.094 467.5,275.5 Z"/></g>
<g><path style="opacity:1" fill="#1c92c1" d="M 459.5,277.5 C 459.833,277.5 460.167,277.5 460.5,277.5C 460.75,279.674 461.75,281.341 463.5,282.5C 463.5,283.167 463.5,283.833 463.5,284.5C 463.235,295.538 463.568,306.538 464.5,317.5C 464.167,317.5 463.833,317.5 463.5,317.5C 423.5,317.5 383.5,317.5 343.5,317.5C 328.167,317.5 312.833,317.5 297.5,317.5C 260.167,317.5 222.833,317.5 185.5,317.5C 184.527,315.052 184.194,312.385 184.5,309.5C 184.039,301.766 183.372,294.099 182.5,286.5C 182.664,280.833 182.997,280.5 183.5,285.5C 276.404,285.168 369.237,285.501 462,286.5C 460.679,283.794 459.846,280.794 459.5,277.5 Z"/></g>
<g><path style="opacity:1" fill="#b23e54" d="M 450.5,262.5 C 452.417,263.406 454.083,264.739 455.5,266.5C 457.185,269.87 458.852,273.203 460.5,276.5C 461.5,276.5 462.5,276.5 463.5,276.5C 463.555,279.614 464.888,281.948 467.5,283.5C 467.263,284.791 467.596,285.791 468.5,286.5C 471.721,292.559 475.554,298.225 480,303.5C 480.49,304.793 480.657,306.127 480.5,307.5C 480.167,307.5 479.833,307.5 479.5,307.5C 475.929,299.951 471.262,293.285 465.5,287.5C 465.573,285.973 464.906,284.973 463.5,284.5C 463.5,283.833 463.5,283.167 463.5,282.5C 463.408,280.152 462.408,278.486 460.5,277.5C 460.167,277.5 459.833,277.5 459.5,277.5C 457.057,272.175 454.057,267.175 450.5,262.5 Z"/></g>
<g><path style="opacity:1" fill="#126aa5" d="M 463.5,284.5 C 464.906,284.973 465.573,285.973 465.5,287.5C 465.827,297.681 465.494,307.681 464.5,317.5C 463.568,306.538 463.235,295.538 463.5,284.5 Z"/></g>
<g><path style="opacity:1" fill="#d85160" d="M 473.5,284.5 C 477.978,290.767 482.478,297.1 487,303.5C 487.622,307.049 486.122,309.049 482.5,309.5C 481.508,309.672 480.842,309.338 480.5,308.5C 480.5,308.167 480.5,307.833 480.5,307.5C 480.657,306.127 480.49,304.793 480,303.5C 475.554,298.225 471.721,292.559 468.5,286.5C 470.167,285.833 471.833,285.167 473.5,284.5 Z"/></g>
<g><path style="opacity:0.955" fill="#f3f9fc" d="M 495.5,286.5 C 499.384,292.576 503.551,298.576 508,304.5C 514.95,315.627 517.783,327.627 516.5,340.5C 514.66,338.832 512.66,337.332 510.5,336C 507.854,335.503 505.187,335.336 502.5,335.5C 501.321,332.142 499.487,329.142 497,326.5C 496.759,313.142 496.259,299.808 495.5,286.5 Z"/></g>
<g><path style="opacity:1" fill="#0d3d5e" d="M 465.5,287.5 C 471.262,293.285 475.929,299.951 479.5,307.5C 477.467,312.604 475.801,317.937 474.5,323.5C 475.986,333.585 475.653,343.585 473.5,353.5C 472.167,355.167 472.167,356.833 473.5,358.5C 471.857,362.295 471.191,366.295 471.5,370.5C 471.5,371.167 471.167,371.5 470.5,371.5C 470.5,370.167 470.5,368.833 470.5,367.5C 468.708,367.366 467.042,367.699 465.5,368.5C 465.5,365.167 465.5,361.833 465.5,358.5C 465.311,344.829 464.978,331.162 464.5,317.5C 465.494,307.681 465.827,297.681 465.5,287.5 Z"/></g>
<g><path style="opacity:1" fill="#71c2de" d="M 185.5,317.5 C 222.833,317.5 260.167,317.5 297.5,317.5C 297.672,318.492 297.338,319.158 296.5,319.5C 282.677,318.504 268.677,318.171 254.5,318.5C 231.833,318.5 209.167,318.5 186.5,318.5C 185.833,318.5 185.5,318.167 185.5,317.5 Z"/></g>
<g><path style="opacity:1" fill="#72c2de" d="M 343.5,317.5 C 383.5,317.5 423.5,317.5 463.5,317.5C 436.338,318.498 409.005,318.831 381.5,318.5C 368.989,318.171 356.655,318.505 344.5,319.5C 343.662,319.158 343.328,318.492 343.5,317.5 Z"/></g>
<g><path style="opacity:1" fill="#0f799b" d="M 297.5,317.5 C 312.833,317.5 328.167,317.5 343.5,317.5C 343.328,318.492 343.662,319.158 344.5,319.5C 344.5,320.167 344.5,320.833 344.5,321.5C 344.719,322.675 344.386,323.675 343.5,324.5C 327.706,323.848 312.039,323.181 296.5,322.5C 296.5,321.5 296.5,320.5 296.5,319.5C 297.338,319.158 297.672,318.492 297.5,317.5 Z"/></g>
<g><path style="opacity:1" fill="#c3f1fc" d="M 186.5,318.5 C 209.167,318.5 231.833,318.5 254.5,318.5C 256.242,324.484 258.909,329.984 262.5,335C 259.525,334.021 256.525,332.688 253.5,331C 247.551,329.136 243.885,331.136 242.5,337C 243.736,340.686 245.736,343.853 248.5,346.5C 244.199,346.381 242.199,348.381 242.5,352.5C 236.158,352.334 229.825,352.5 223.5,353C 221.408,353.953 221.075,355.286 222.5,357C 235.496,357.5 248.496,357.667 261.5,357.5C 261.5,357.833 261.5,358.167 261.5,358.5C 238.833,358.5 216.167,358.5 193.5,358.5C 192.494,354.47 189.827,352.803 185.5,353.5C 185.12,349.177 184.786,344.844 184.5,340.5C 185.387,333.182 186.053,325.849 186.5,318.5 Z"/></g>
<g><path style="opacity:1" fill="#c3f2fd" d="M 463.5,317.5 C 463.833,317.5 464.167,317.5 464.5,317.5C 464.978,331.162 465.311,344.829 465.5,358.5C 459.491,358.334 453.491,358.501 447.5,359C 448.056,359.383 448.389,359.883 448.5,360.5C 446.912,359.359 445.579,357.859 444.5,356C 441.305,355.819 438.305,355.319 435.5,354.5C 439.457,354.992 443.123,354.325 446.5,352.5C 447.784,349.692 447.117,347.359 444.5,345.5C 442.802,346.681 441.135,346.681 439.5,345.5C 440.421,343.244 442.088,342.244 444.5,342.5C 444.5,339.5 444.5,336.5 444.5,333.5C 445.5,333.5 446.5,333.5 447.5,333.5C 447.762,332.022 447.429,330.689 446.5,329.5C 443.135,331.454 439.468,332.454 435.5,332.5C 435.5,331.5 435.5,330.5 435.5,329.5C 437.288,329.785 438.955,329.452 440.5,328.5C 440.333,328.167 440.167,327.833 440,327.5C 437.373,326.217 434.873,324.717 432.5,323C 431.5,322.333 430.5,322.333 429.5,323C 427.07,325.195 425.403,327.862 424.5,331C 422.415,331.529 420.582,331.029 419,329.5C 418.5,329.833 418,330.167 417.5,330.5C 416.593,333.421 416.26,336.421 416.5,339.5C 419.187,339.336 421.854,339.503 424.5,340C 425.056,340.383 425.389,340.883 425.5,341.5C 412.047,338.272 403.88,343.272 401,356.5C 398.107,353.85 394.607,352.85 390.5,353.5C 391.609,352.71 392.942,352.21 394.5,352C 393.319,347.249 390.319,344.582 385.5,344C 391.668,341.517 394.501,337.017 394,330.5C 392.537,328.115 390.371,327.115 387.5,327.5C 383.135,327.932 379.302,329.599 376,332.5C 375.675,330.447 376.009,328.447 377,326.5C 378.765,323.968 380.265,321.301 381.5,318.5C 409.005,318.831 436.338,318.498 463.5,317.5 Z"/></g>
<g><path style="opacity:1" fill="#0c3d5d" d="M 490.5,278.5 C 490.833,278.5 491.167,278.5 491.5,278.5C 491.427,280.027 492.094,281.027 493.5,281.5C 494.931,282.78 495.598,284.447 495.5,286.5C 496.259,299.808 496.759,313.142 497,326.5C 499.487,329.142 501.321,332.142 502.5,335.5C 505.107,342.598 506.774,349.932 507.5,357.5C 508.791,357.263 509.791,357.596 510.5,358.5C 509.252,359.334 508.585,360.667 508.5,362.5C 508.753,364.858 509.086,367.192 509.5,369.5C 507.082,371.456 504.249,372.79 501,373.5C 500.5,373.333 500,373.167 499.5,373C 500.252,372.329 500.586,371.496 500.5,370.5C 502.252,370.582 503.252,369.749 503.5,368C 502.393,364.846 501.393,361.68 500.5,358.5C 500.672,357.508 500.338,356.842 499.5,356.5C 497.011,349.528 494.011,342.861 490.5,336.5C 487.369,327.643 484.702,318.643 482.5,309.5C 486.122,309.049 487.622,307.049 487,303.5C 482.478,297.1 477.978,290.767 473.5,284.5C 474.694,283.728 475.694,282.728 476.5,281.5C 481.167,280.5 485.833,279.5 490.5,278.5 Z"/></g>
<g><path style="opacity:1" fill="#facbb2" d="M 183.5,331.5 C 182.572,340.659 181.905,349.992 181.5,359.5C 181.524,362.421 181.857,365.254 182.5,368C 181.207,368.49 179.873,368.657 178.5,368.5C 178.052,352.152 177.219,335.818 176,319.5C 175.798,317.744 175.298,316.078 174.5,314.5C 172.944,319.725 171.944,325.058 171.5,330.5C 169.687,338.292 168.354,346.292 167.5,354.5C 166.041,358.586 165.041,362.92 164.5,367.5C 163.914,367.291 163.414,366.957 163,366.5C 162.339,353.486 162.506,340.486 163.5,327.5C 165.151,322.672 165.817,317.672 165.5,312.5C 170.844,312.666 176.177,312.499 181.5,312C 181.167,311.667 180.833,311.333 180.5,311C 181.448,310.517 182.448,310.351 183.5,310.5C 183.5,317.5 183.5,324.5 183.5,331.5 Z"/></g>
<g><path style="opacity:1" fill="#1b92c0" d="M 344.5,321.5 C 346.606,327.582 348.272,333.916 349.5,340.5C 349.963,343.221 350.629,345.888 351.5,348.5C 331.167,348.5 310.833,348.5 290.5,348.5C 290.552,344.802 290.886,341.135 291.5,337.5C 293.061,332.473 294.728,327.473 296.5,322.5C 312.039,323.181 327.706,323.848 343.5,324.5C 344.386,323.675 344.719,322.675 344.5,321.5 Z"/></g>
<g><path style="opacity:1" fill="#a7edfc" d="M 381.5,318.5 C 380.265,321.301 378.765,323.968 377,326.5C 376.009,328.447 375.675,330.447 376,332.5C 379.302,329.599 383.135,327.932 387.5,327.5C 390.371,327.115 392.537,328.115 394,330.5C 394.501,337.017 391.668,341.517 385.5,344C 390.319,344.582 393.319,347.249 394.5,352C 392.942,352.21 391.609,352.71 390.5,353.5C 387.598,355.051 385.931,357.385 385.5,360.5C 384.448,358.744 382.781,358.077 380.5,358.5C 380.209,355.963 380.042,353.296 380,350.5C 379.292,349.619 378.458,348.953 377.5,348.5C 376.081,347.549 374.415,347.216 372.5,347.5C 372.5,346.167 372.5,344.833 372.5,343.5C 368.538,344.135 367.205,342.802 368.5,339.5C 367.086,335.579 364.42,334.579 360.5,336.5C 360,337.5 359.5,338.5 359,339.5C 358.742,333.876 356.409,332.543 352,335.5C 351.95,337.744 351.117,339.411 349.5,340.5C 348.272,333.916 346.606,327.582 344.5,321.5C 344.5,320.833 344.5,320.167 344.5,319.5C 356.655,318.505 368.989,318.171 381.5,318.5 Z"/></g>
<g><path style="opacity:1" fill="#92f2fb" d="M 435.5,354.5 C 435.166,347.836 431.833,343.502 425.5,341.5C 425.389,340.883 425.056,340.383 424.5,340C 421.854,339.503 419.187,339.336 416.5,339.5C 416.26,336.421 416.593,333.421 417.5,330.5C 418,330.167 418.5,329.833 419,329.5C 420.582,331.029 422.415,331.529 424.5,331C 425.403,327.862 427.07,325.195 429.5,323C 430.5,322.333 431.5,322.333 432.5,323C 434.873,324.717 437.373,326.217 440,327.5C 440.167,327.833 440.333,328.167 440.5,328.5C 438.955,329.452 437.288,329.785 435.5,329.5C 435.5,330.5 435.5,331.5 435.5,332.5C 439.468,332.454 443.135,331.454 446.5,329.5C 447.429,330.689 447.762,332.022 447.5,333.5C 446.5,333.5 445.5,333.5 444.5,333.5C 444.5,336.5 444.5,339.5 444.5,342.5C 442.088,342.244 440.421,343.244 439.5,345.5C 441.135,346.681 442.802,346.681 444.5,345.5C 447.117,347.359 447.784,349.692 446.5,352.5C 443.123,354.325 439.457,354.992 435.5,354.5 Z"/></g>
<g><path style="opacity:1" fill="#e5f5f9" d="M 480.5,308.5 C 480.842,309.338 481.508,309.672 482.5,309.5C 484.702,318.643 487.369,327.643 490.5,336.5C 490.586,337.496 490.252,338.329 489.5,339C 487.19,339.497 484.857,339.663 482.5,339.5C 483.263,336.859 483.43,334.192 483,331.5C 475.931,330.253 474.598,326.587 479,320.5C 479.176,316.312 479.676,312.312 480.5,308.5 Z"/></g>
<g><path style="opacity:1" fill="#a7eefd" d="M 254.5,318.5 C 268.677,318.171 282.677,318.504 296.5,319.5C 296.5,320.5 296.5,321.5 296.5,322.5C 294.728,327.473 293.061,332.473 291.5,337.5C 288.216,338.738 286.716,337.405 287,333.5C 282.65,331.365 280.317,332.699 280,337.5C 277.695,335.07 274.862,334.07 271.5,334.5C 270.667,336.752 270.667,338.919 271.5,341C 269.866,341.494 268.199,341.66 266.5,341.5C 266.261,343.467 266.594,345.301 267.5,347C 265.942,347.21 264.609,347.71 263.5,348.5C 260.382,350.848 259.715,353.848 261.5,357.5C 248.496,357.667 235.496,357.5 222.5,357C 221.075,355.286 221.408,353.953 223.5,353C 229.825,352.5 236.158,352.334 242.5,352.5C 242.199,348.381 244.199,346.381 248.5,346.5C 245.736,343.853 243.736,340.686 242.5,337C 243.885,331.136 247.551,329.136 253.5,331C 256.525,332.688 259.525,334.021 262.5,335C 258.909,329.984 256.242,324.484 254.5,318.5 Z"/></g>
<g><path style="opacity:1" fill="#86dcf7" d="M 291.5,337.5 C 290.886,341.135 290.552,344.802 290.5,348.5C 281.5,348.5 272.5,348.5 263.5,348.5C 264.609,347.71 265.942,347.21 267.5,347C 266.594,345.301 266.261,343.467 266.5,341.5C 268.199,341.66 269.866,341.494 271.5,341C 270.667,338.919 270.667,336.752 271.5,334.5C 274.862,334.07 277.695,335.07 280,337.5C 280.317,332.699 282.65,331.365 287,333.5C 286.716,337.405 288.216,338.738 291.5,337.5 Z"/></g>
<g><path style="opacity:1" fill="#e5f5fa" d="M 158.5,292.5 C 160.851,298.054 162.517,303.887 163.5,310C 166.207,311.057 169.04,311.557 172,311.5C 176.371,311.518 180.538,310.851 184.5,309.5C 184.194,312.385 184.527,315.052 185.5,317.5C 185.5,318.167 185.833,318.5 186.5,318.5C 186.053,325.849 185.387,333.182 184.5,340.5C 184.786,344.844 185.12,349.177 185.5,353.5C 189.827,352.803 192.494,354.47 193.5,358.5C 193.5,360.167 193.5,361.833 193.5,363.5C 194.675,363.281 195.675,363.614 196.5,364.5C 192.162,365.287 187.828,365.954 183.5,366.5C 183.5,354.833 183.5,343.167 183.5,331.5C 183.5,324.5 183.5,317.5 183.5,310.5C 182.448,310.351 181.448,310.517 180.5,311C 180.833,311.333 181.167,311.667 181.5,312C 176.177,312.499 170.844,312.666 165.5,312.5C 165.817,317.672 165.151,322.672 163.5,327.5C 162.71,328.609 162.21,329.942 162,331.5C 162.115,343.414 161.282,355.08 159.5,366.5C 154.167,366.5 148.833,366.5 143.5,366.5C 139.76,366.759 136.094,366.426 132.5,365.5C 133.131,363.522 133.131,361.355 132.5,359C 127.177,358.501 121.844,358.334 116.5,358.5C 106.5,358.5 96.5,358.5 86.5,358.5C 86.178,356.278 86.8446,354.444 88.5,353C 90.8668,351.155 93.5335,349.989 96.5,349.5C 96.67,350.822 96.3366,351.989 95.5,353C 93.567,353.251 91.7337,353.751 90,354.5C 89.3828,355.449 89.5494,356.282 90.5,357C 104.179,357.833 117.846,357.666 131.5,356.5C 131.974,352.671 133.307,349.338 135.5,346.5C 137.167,346.5 138.833,346.5 140.5,346.5C 141.675,346.719 142.675,346.386 143.5,345.5C 145.704,337.292 151.038,333.292 159.5,333.5C 159.5,330.833 159.5,328.167 159.5,325.5C 156.708,325.452 154.875,326.785 154,329.5C 152.497,326.13 150.997,322.796 149.5,319.5C 150.496,319.414 151.329,319.748 152,320.5C 152.938,323.723 155.105,325.056 158.5,324.5C 157.939,320.322 157.939,315.989 158.5,311.5C 158.359,308.181 157.693,305.014 156.5,302C 156.611,300.278 157.111,300.112 158,301.5C 158.498,298.518 158.665,295.518 158.5,292.5 Z"/></g>
<g><path style="opacity:1" fill="#87dcf7" d="M 377.5,348.5 C 368.833,348.5 360.167,348.5 351.5,348.5C 350.629,345.888 349.963,343.221 349.5,340.5C 351.117,339.411 351.95,337.744 352,335.5C 356.409,332.543 358.742,333.876 359,339.5C 359.5,338.5 360,337.5 360.5,336.5C 364.42,334.579 367.086,335.579 368.5,339.5C 367.205,342.802 368.538,344.135 372.5,343.5C 372.5,344.833 372.5,346.167 372.5,347.5C 374.415,347.216 376.081,347.549 377.5,348.5 Z"/></g>
<g><path style="opacity:1" fill="#90f0f8" d="M 145.5,319.5 C 146.833,319.5 148.167,319.5 149.5,319.5C 150.997,322.796 152.497,326.13 154,329.5C 154.875,326.785 156.708,325.452 159.5,325.5C 159.5,328.167 159.5,330.833 159.5,333.5C 151.038,333.292 145.704,337.292 143.5,345.5C 142.675,346.386 141.675,346.719 140.5,346.5C 129.925,343.799 129.925,340.966 140.5,338C 138.777,335.057 137.777,331.89 137.5,328.5C 141.025,328.346 143.859,329.679 146,332.5C 145.709,328.226 145.543,323.893 145.5,319.5 Z"/></g>
<g><path style="opacity:1" fill="#e8f5fb" d="M 425.5,341.5 C 431.833,343.502 435.166,347.836 435.5,354.5C 438.305,355.319 441.305,355.819 444.5,356C 445.579,357.859 446.912,359.359 448.5,360.5C 448.833,361.167 449.167,361.833 449.5,362.5C 449.729,367.005 449.063,371.339 447.5,375.5C 448.791,375.263 449.791,375.596 450.5,376.5C 446.46,378.117 442.127,378.95 437.5,379C 416.137,379.904 394.803,379.571 373.5,378C 372.391,376.187 373.058,375.354 375.5,375.5C 374.078,367.944 377.078,363.944 384.5,363.5C 384.263,362.209 384.596,361.209 385.5,360.5C 385.931,357.385 387.598,355.051 390.5,353.5C 394.607,352.85 398.107,353.85 401,356.5C 403.88,343.272 412.047,338.272 425.5,341.5 Z"/></g>
<g><path style="opacity:1" fill="#c2effa" d="M 479.5,307.5 C 479.833,307.5 480.167,307.5 480.5,307.5C 480.5,307.833 480.5,308.167 480.5,308.5C 479.676,312.312 479.176,316.312 479,320.5C 474.598,326.587 475.931,330.253 483,331.5C 483.43,334.192 483.263,336.859 482.5,339.5C 484.857,339.663 487.19,339.497 489.5,339C 490.252,338.329 490.586,337.496 490.5,336.5C 494.011,342.861 497.011,349.528 499.5,356.5C 491.016,357.493 482.349,357.826 473.5,357.5C 473.5,356.167 473.5,354.833 473.5,353.5C 475.653,343.585 475.986,333.585 474.5,323.5C 475.801,317.937 477.467,312.604 479.5,307.5 Z"/></g>
<g><path style="opacity:0.014" fill="#000000" d="M 121.5,346.5 C 121.833,346.5 122.167,346.5 122.5,346.5C 124.124,349.358 123.457,350.025 120.5,348.5C 120.833,347.833 121.167,347.167 121.5,346.5 Z"/></g>
<g><path style="opacity:0.01" fill="#0b0b0b" d="M 518.5,346.5 C 519.5,346.833 520.167,347.5 520.5,348.5C 519.127,348.657 517.793,348.49 516.5,348C 517.044,347.283 517.711,346.783 518.5,346.5 Z"/></g>
<g><path style="opacity:1" fill="#eed5c8" d="M 183.5,331.5 C 183.5,343.167 183.5,354.833 183.5,366.5C 183.557,367.609 183.89,368.609 184.5,369.5C 181.783,370.767 179.117,370.434 176.5,368.5C 177.111,366.087 177.445,363.587 177.5,361C 175.873,347.583 175.039,334.083 175,320.5C 173.938,323.927 172.771,327.261 171.5,330.5C 171.944,325.058 172.944,319.725 174.5,314.5C 175.298,316.078 175.798,317.744 176,319.5C 177.219,335.818 178.052,352.152 178.5,368.5C 179.873,368.657 181.207,368.49 182.5,368C 181.857,365.254 181.524,362.421 181.5,359.5C 181.905,349.992 182.572,340.659 183.5,331.5 Z"/></g>
<g><path style="opacity:1" fill="#1d7795" d="M 263.5,348.5 C 272.5,348.5 281.5,348.5 290.5,348.5C 310.833,348.5 331.167,348.5 351.5,348.5C 360.167,348.5 368.833,348.5 377.5,348.5C 378.458,348.953 379.292,349.619 380,350.5C 380.042,353.296 380.209,355.963 380.5,358.5C 340.833,358.5 301.167,358.5 261.5,358.5C 261.5,358.167 261.5,357.833 261.5,357.5C 259.715,353.848 260.382,350.848 263.5,348.5 Z"/></g>
<g><path style="opacity:1" fill="#c8f3fc" d="M 145.5,319.5 C 145.543,323.893 145.709,328.226 146,332.5C 143.859,329.679 141.025,328.346 137.5,328.5C 137.777,331.89 138.777,335.057 140.5,338C 129.925,340.966 129.925,343.799 140.5,346.5C 138.833,346.5 137.167,346.5 135.5,346.5C 133.307,349.338 131.974,352.671 131.5,356.5C 117.846,357.666 104.179,357.833 90.5,357C 89.5494,356.282 89.3828,355.449 90,354.5C 91.7337,353.751 93.567,353.251 95.5,353C 96.3366,351.989 96.67,350.822 96.5,349.5C 104.316,348.508 112.316,348.174 120.5,348.5C 123.457,350.025 124.124,349.358 122.5,346.5C 122.162,343.843 122.829,341.51 124.5,339.5C 126.769,338.185 129.102,337.018 131.5,336C 133.134,335.506 134.801,335.34 136.5,335.5C 133.491,327.173 135.824,324.839 143.5,328.5C 144.167,325.358 144.834,322.358 145.5,319.5 Z"/></g>
<g><path style="opacity:1" fill="#ccf2fa" d="M 502.5,335.5 C 505.187,335.336 507.854,335.503 510.5,336C 512.66,337.332 514.66,338.832 516.5,340.5C 518.081,342.142 518.747,344.142 518.5,346.5C 517.711,346.783 517.044,347.283 516.5,348C 517.793,348.49 519.127,348.657 520.5,348.5C 531.793,346.159 542.46,347.659 552.5,353C 553.861,354.584 554.528,356.418 554.5,358.5C 544.167,358.5 533.833,358.5 523.5,358.5C 519.167,358.5 514.833,358.5 510.5,358.5C 509.791,357.596 508.791,357.263 507.5,357.5C 506.774,349.932 505.107,342.598 502.5,335.5 Z"/></g>
<g><path style="opacity:1" fill="#e9f3f7" d="M 176.5,368.5 C 175.833,369.167 175.167,369.833 174.5,370.5C 174.167,370.5 173.833,370.5 173.5,370.5C 172.391,370.443 171.391,370.11 170.5,369.5C 169.469,368.751 168.302,368.085 167,367.5C 166.466,363.141 166.632,358.808 167.5,354.5C 168.354,346.292 169.687,338.292 171.5,330.5C 172.771,327.261 173.938,323.927 175,320.5C 175.039,334.083 175.873,347.583 177.5,361C 177.445,363.587 177.111,366.087 176.5,368.5 Z"/></g>
<g><path style="opacity:0.973" fill="#99adb1" d="M 473.5,353.5 C 473.5,354.833 473.5,356.167 473.5,357.5C 482.349,357.826 491.016,357.493 499.5,356.5C 500.338,356.842 500.672,357.508 500.5,358.5C 491.5,358.5 482.5,358.5 473.5,358.5C 472.167,356.833 472.167,355.167 473.5,353.5 Z"/></g>
<g><path style="opacity:0.727" fill="#010101" d="M 116.5,358.5 C 121.844,358.334 127.177,358.501 132.5,359C 133.131,361.355 133.131,363.522 132.5,365.5C 136.094,366.426 139.76,366.759 143.5,366.5C 148.305,367.487 153.305,367.821 158.5,367.5C 158.768,369.099 158.434,370.432 157.5,371.5C 157.5,370.833 157.167,370.5 156.5,370.5C 152.895,369.133 149.229,369.3 145.5,371C 145.043,371.414 144.709,371.914 144.5,372.5C 145.912,373.806 147.579,374.64 149.5,375C 157.853,375.832 166.187,375.665 174.5,374.5C 173.757,373.818 173.091,373.151 172.5,372.5C 172.833,371.833 173.167,371.167 173.5,370.5C 173.833,370.5 174.167,370.5 174.5,370.5C 175.249,371.531 175.915,372.698 176.5,374C 178.488,374.18 180.488,374.014 182.5,373.5C 182.611,374.117 182.944,374.617 183.5,375C 188.684,375.816 193.684,375.65 198.5,374.5C 200.665,374.884 202.332,374.217 203.5,372.5C 199.722,370.745 195.722,370.078 191.5,370.5C 189.194,370.007 186.861,369.674 184.5,369.5C 183.89,368.609 183.557,367.609 183.5,366.5C 187.828,365.954 192.162,365.287 196.5,364.5C 195.675,363.614 194.675,363.281 193.5,363.5C 193.5,361.833 193.5,360.167 193.5,358.5C 216.167,358.5 238.833,358.5 261.5,358.5C 301.167,358.5 340.833,358.5 380.5,358.5C 382.781,358.077 384.448,358.744 385.5,360.5C 384.596,361.209 384.263,362.209 384.5,363.5C 377.078,363.944 374.078,367.944 375.5,375.5C 373.058,375.354 372.391,376.187 373.5,378C 394.803,379.571 416.137,379.904 437.5,379C 442.127,378.95 446.46,378.117 450.5,376.5C 457.412,375.538 464.412,375.205 471.5,375.5C 484.776,376.52 498.109,376.353 511.5,375C 513.78,374.767 515.78,373.934 517.5,372.5C 515.255,370.377 512.588,369.377 509.5,369.5C 509.086,367.192 508.753,364.858 508.5,362.5C 508.585,360.667 509.252,359.334 510.5,358.5C 514.833,358.5 519.167,358.5 523.5,358.5C 524.481,363.129 524.648,367.796 524,372.5C 521.543,377.371 519.376,382.371 517.5,387.5C 383.167,387.5 248.833,387.5 114.5,387.5C 113.206,383.912 112.206,380.246 111.5,376.5C 112.857,370.404 114.524,364.404 116.5,358.5 Z"/></g>
<g><path style="opacity:0.895" fill="#020202" d="M 465.5,358.5 C 465.5,361.833 465.5,365.167 465.5,368.5C 463.167,369.167 460.833,369.833 458.5,370.5C 456.167,370.5 453.833,370.5 451.5,370.5C 450.833,367.833 450.167,365.167 449.5,362.5C 449.167,361.833 448.833,361.167 448.5,360.5C 448.389,359.883 448.056,359.383 447.5,359C 453.491,358.501 459.491,358.334 465.5,358.5 Z"/></g>
<g><path style="opacity:0.897" fill="#010101" d="M 473.5,358.5 C 482.5,358.5 491.5,358.5 500.5,358.5C 501.393,361.68 502.393,364.846 503.5,368C 503.252,369.749 502.252,370.582 500.5,370.5C 499.737,369.732 498.737,369.232 497.5,369C 489.5,368.333 481.5,368.333 473.5,369C 472.956,369.717 472.289,370.217 471.5,370.5C 471.191,366.295 471.857,362.295 473.5,358.5 Z"/></g>
<g><path style="opacity:1" fill="#ecd4cd" d="M 163.5,327.5 C 162.506,340.486 162.339,353.486 163,366.5C 163.414,366.957 163.914,367.291 164.5,367.5C 165.041,362.92 166.041,358.586 167.5,354.5C 166.632,358.808 166.466,363.141 167,367.5C 168.302,368.085 169.469,368.751 170.5,369.5C 167.246,369.793 164.246,369.126 161.5,367.5C 161.158,366.662 160.492,366.328 159.5,366.5C 161.282,355.08 162.115,343.414 162,331.5C 162.21,329.942 162.71,328.609 163.5,327.5 Z"/></g>
<g><path style="opacity:1" fill="#26315f" d="M 470.5,371.5 C 467.468,371.505 464.468,371.838 461.5,372.5C 459.97,372.36 458.97,371.693 458.5,370.5C 460.833,369.833 463.167,369.167 465.5,368.5C 467.042,367.699 468.708,367.366 470.5,367.5C 470.5,368.833 470.5,370.167 470.5,371.5 Z"/></g>
<g><path style="opacity:1" fill="#2f2f5e" d="M 161.5,367.5 C 164.246,369.126 167.246,369.793 170.5,369.5C 171.391,370.11 172.391,370.443 173.5,370.5C 173.167,371.167 172.833,371.833 172.5,372.5C 169.721,372.721 167.054,372.388 164.5,371.5C 162.833,371.5 161.167,371.5 159.5,371.5C 159.157,369.517 159.824,368.183 161.5,367.5 Z"/></g>
<g><path style="opacity:1" fill="#d3dbe0" d="M 500.5,370.5 C 500.586,371.496 500.252,372.329 499.5,373C 500,373.167 500.5,373.333 501,373.5C 504.249,372.79 507.082,371.456 509.5,369.5C 512.588,369.377 515.255,370.377 517.5,372.5C 515.78,373.934 513.78,374.767 511.5,375C 498.109,376.353 484.776,376.52 471.5,375.5C 464.352,374.508 457.019,374.175 449.5,374.5C 449.527,372.801 450.194,371.467 451.5,370.5C 453.833,370.5 456.167,370.5 458.5,370.5C 458.97,371.693 459.97,372.36 461.5,372.5C 464.468,371.838 467.468,371.505 470.5,371.5C 471.167,371.5 471.5,371.167 471.5,370.5C 472.289,370.217 472.956,369.717 473.5,369C 481.5,368.333 489.5,368.333 497.5,369C 498.737,369.232 499.737,369.732 500.5,370.5 Z"/></g>
<g><path style="opacity:0.773" fill="#474a4f" d="M 143.5,366.5 C 148.833,366.5 154.167,366.5 159.5,366.5C 160.492,366.328 161.158,366.662 161.5,367.5C 159.824,368.183 159.157,369.517 159.5,371.5C 161.167,371.5 162.833,371.5 164.5,371.5C 162.643,373.845 160.31,374.178 157.5,372.5C 157.5,372.167 157.5,371.833 157.5,371.5C 158.434,370.432 158.768,369.099 158.5,367.5C 153.305,367.821 148.305,367.487 143.5,366.5 Z"/></g>
<g><path style="opacity:1" fill="#3b3d64" d="M 176.5,368.5 C 179.117,370.434 181.783,370.767 184.5,369.5C 186.861,369.674 189.194,370.007 191.5,370.5C 190.738,372.262 189.404,373.262 187.5,373.5C 185.833,373.5 184.167,373.5 182.5,373.5C 180.488,374.014 178.488,374.18 176.5,374C 175.915,372.698 175.249,371.531 174.5,370.5C 175.167,369.833 175.833,369.167 176.5,368.5 Z"/></g>
<g><path style="opacity:1" fill="#d8dfe5" d="M 191.5,370.5 C 195.722,370.078 199.722,370.745 203.5,372.5C 202.332,374.217 200.665,374.884 198.5,374.5C 194.629,374.815 190.962,374.482 187.5,373.5C 189.404,373.262 190.738,372.262 191.5,370.5 Z"/></g>
<g><path style="opacity:1" fill="#e3eaee" d="M 156.5,370.5 C 157.167,370.5 157.5,370.833 157.5,371.5C 157.5,371.833 157.5,372.167 157.5,372.5C 154.291,375.086 150.958,374.919 147.5,372C 150.351,370.711 153.351,370.211 156.5,370.5 Z"/></g>
<g><path style="opacity:0.937" fill="#b0b6bb" d="M 156.5,370.5 C 153.351,370.211 150.351,370.711 147.5,372C 150.958,374.919 154.291,375.086 157.5,372.5C 160.31,374.178 162.643,373.845 164.5,371.5C 167.054,372.388 169.721,372.721 172.5,372.5C 173.091,373.151 173.757,373.818 174.5,374.5C 166.187,375.665 157.853,375.832 149.5,375C 147.579,374.64 145.912,373.806 144.5,372.5C 144.709,371.914 145.043,371.414 145.5,371C 149.229,369.3 152.895,369.133 156.5,370.5 Z"/></g>
<g><path style="opacity:0.894" fill="#81838b" d="M 182.5,373.5 C 184.167,373.5 185.833,373.5 187.5,373.5C 190.962,374.482 194.629,374.815 198.5,374.5C 193.684,375.65 188.684,375.816 183.5,375C 182.944,374.617 182.611,374.117 182.5,373.5 Z"/></g>
<g><path style="opacity:0.953" fill="#999e9f" d="M 449.5,362.5 C 450.167,365.167 450.833,367.833 451.5,370.5C 450.194,371.467 449.527,372.801 449.5,374.5C 457.019,374.175 464.352,374.508 471.5,375.5C 464.412,375.205 457.412,375.538 450.5,376.5C 449.791,375.596 448.791,375.263 447.5,375.5C 449.063,371.339 449.729,367.005 449.5,362.5 Z"/></g>
</svg>
